<?xml version="1.0" encoding="UTF-8"?>
<svg id="Layer_1" data-name="Layer 1" xmlns="http://www.w3.org/2000/svg" viewBox="220 230 400 120">
<!-- <svg id="Layer_1" data-name="Layer 1" xmlns="http://www.w3.org/2000/svg" viewBox="150 270 600 60"> -->
  <defs>
    <style>
      .cls-1 {
        fill: #faa31a;
      }

      .cls-2 {
        fill: #5e3065;
      }

      .cls-3 {
        fill: #231f20;
        font-family: LamaSans-Regular, 'Lama Sans';
        font-size: 9.64px;
      }
    </style>
  </defs>
  <g>
    <g>
      <path class="cls-2" d="m292.43,334.18h-5.43v-2.86h13.94v2.86h-5.45v10.54h-3.07v-10.54Z"/>
      <path class="cls-2" d="m315.98,331.33v13.39h-3.07v-5.43h-7.65v5.43h-3.07v-13.39h3.07v5.11h7.65v-5.11h3.07Z"/>
      <path class="cls-2" d="m320.81,334.2v2.34h7.98v2.71h-7.98v2.59h8.53v2.87h-11.58v-13.39h11.58v2.87h-8.53Z"/>
      <path class="cls-2" d="m334.31,338.01c0-4.51,3.26-6.9,8.04-6.9,3.83,0,5.46,1.46,5.93,1.83l-2,2.08c-1.15-.75-2.45-1.03-3.92-1.03-3,0-4.88,1.31-4.88,4.03s2.2,4.04,5.13,4.04c1.44,0,2.86-.35,3.73-1.06l2.13,2.04c-.41.34-2.11,1.93-5.85,1.93-4.72,0-8.29-2.45-8.29-6.95Z"/>
      <path class="cls-2" d="m349.56,338.07c0-4.51,3.57-6.94,8.27-6.94s8.23,2.5,8.23,6.94-3.49,6.87-8.23,6.87-8.27-2.45-8.27-6.87Zm3.14,0c0,2.68,2.24,4.01,5.13,4.01s5.11-1.42,5.11-4.01c0-2.75-2.38-4.05-5.11-4.05-2.93,0-5.13,1.28-5.13,4.05Z"/>
      <path class="cls-2" d="m378.57,341.63h-7.42l-1.51,3.09h-3.28l6.71-13.39h3.58l6.72,13.39h-3.28l-1.53-3.09Zm-1.26-2.64l-2.45-5.02-2.43,5.02h4.88Z"/>
      <path class="cls-2" d="m383.68,338.01c0-4.51,3.26-6.9,8.04-6.9,3.83,0,5.46,1.46,5.92,1.83l-2,2.08c-1.15-.75-2.45-1.03-3.92-1.03-3,0-4.88,1.31-4.88,4.03s2.2,4.04,5.13,4.04c1.44,0,2.86-.35,3.73-1.06l2.13,2.04c-.41.34-2.11,1.93-5.85,1.93-4.72,0-8.28-2.45-8.28-6.95Z"/>
      <path class="cls-2" d="m413.03,331.33v13.39h-3.07v-5.43h-7.65v5.43h-3.07v-13.39h3.07v5.11h7.65v-5.11h3.07Z"/>
    </g>
    <polygon class="cls-2" points="476.31 281.62 476.28 281.64 476.28 281.62 476.31 281.62"/>
    <rect class="cls-1" x="351.85" y="281.62" width="38.27" height="11.4"/>
    <rect class="cls-1" x="276.47" y="262.84" width="45.75" height="11.4"/>
    <rect class="cls-1" x="291.69" y="248.44" width="15.3" height="11.4"/>
    <g>
      <path class="cls-2" d="m227.32,283.81h-2.44v-1.29h6.28v1.29h-2.45v4.74h-1.38v-4.74Z"/>
      <path class="cls-2" d="m240.15,288.56h-1.38v-4.99l-2.06,4.99h-1.56l-2.04-5v5h-1.39v-6.03h2.26l1.96,4.88,1.96-4.88h2.26v6.03Z"/>
    </g>
    <g>
      <rect class="cls-2" x="601.06" y="266.44" width="15.28" height="52.74"/>
      <path class="cls-2" d="m577.99,266.44v37.46h-20.91c0-12.31-9.97-22.28-22.28-22.28h-30.28l22.97-14.79-8.27-12.84-42.91,27.63-.03.02v14.62h58.28c4.22,0,7.65,3.42,7.65,7.64h-73.51v-22.28h-15.28v.05h-10.17c-12.29,0-22.25,9.94-22.28,22.23v15.28h32.47v3.19c0,.18-.01.36-.02.54-.28,4.15-3.73,7.43-7.95,7.43h-15.5v15.51h15.5c12.47,0,22.62-9.8,23.2-22.11.02-.37.03-.75.03-1.12v-3.44h124.57v-52.74h-15.28Zm-124.57,37.46h-17.57c.03-4.2,3.44-7.59,7.64-7.59h9.93v7.59Z"/>
      <path class="cls-2" d="m413.38,281.62v37.56h-98.8c-5.86,0-11.2-2.19-15.25-5.82-4.05,3.63-9.4,5.82-15.26,5.82-2.67,0-5.22-.45-7.6-1.3v27.97h-28.68c-.44,0-.87-.01-1.3-.04-5.81-.32-11.05-2.82-14.91-6.67-4.14-4.15-6.71-9.89-6.71-16.21v-14.64h15.28v14.64c0,4.23,3.42,7.64,7.64,7.64h13.4v-33.12c-.02-.39-.03-.78-.03-1.18v-14.65h15.28v14.65c0,.22.01.44.03.65.33,3.92,3.61,6.98,7.6,6.98,2.11,0,4.02-.85,5.4-2.23,1.25-1.24,2.06-2.9,2.21-4.75.02-.21.03-.43.03-.65v-14.65h15.24v14.65c0,.18.01.35.03.52.26,3.98,3.56,7.11,7.6,7.11h7.63v-22.28h15.28v22.28h60.61v-22.28h15.28Z"/>
    </g>
  </g>
  <!-- <rect class="cls-2" x="50.5" y="468.04" width="74.74" height="74.74"/>
  <text class="cls-3" transform="translate(50.35 556.92)"><tspan x="0" y="0">#5E3065</tspan></text>
  <rect class="cls-1" x="141.84" y="468.04" width="74.74" height="74.74"/>
  <text class="cls-3" transform="translate(142.57 556.92)"><tspan x="0" y="0">#FAA31A</tspan></text> -->
</svg>